P2
30 21
255
0 0 0 0 0 0 0 0 0 0 0 0 0 0 0 0 0 0 0 0 0 0 0 0 0 0 0 0 0 0 
0 0 0 0 0 0 0 0 0 0 0 0 0 0 0 0 0 0 0 0 0 0 0 0 0 0 0 0 0 0 
0 0 0 0 0 0 0 0 0 0 0 0 0 0 0 0 0 0 0 0 0 0 0 0 0 0 0 0 0 0 
0 0 0 255 255 255 0 0 0 0 0 255 255 255 0 0 0 0 0 255 255 255 0 0 0 255 255 255 0 0 
0 0 0 255 255 255 0 0 0 0 0 255 255 255 0 0 0 0 0 255 255 255 0 0 0 255 255 255 0 0 
0 0 0 255 255 255 0 0 0 0 0 255 255 255 255 0 0 0 0 255 255 255 0 0 0 255 255 255 0 0 
0 0 0 255 255 255 0 0 0 0 0 255 255 255 255 0 0 0 0 255 255 255 0 0 255 255 255 255 0 0 
0 0 0 255 255 255 0 0 0 0 0 255 255 255 255 0 0 0 0 255 255 255 0 0 255 255 255 255 0 0 
0 0 0 255 255 255 0 0 0 0 0 0 255 255 255 0 0 0 0 255 255 255 0 0 255 255 255 255 0 0 
0 0 0 255 255 255 0 0 0 0 0 0 255 255 255 0 0 0 0 255 255 255 0 0 255 255 255 0 0 0 
0 0 0 255 255 255 0 0 0 0 0 0 255 255 255 0 0 0 0 255 255 255 0 0 255 255 255 0 0 0 
0 0 0 255 255 255 0 0 0 0 0 0 255 255 255 0 0 0 0 255 255 255 0 0 255 255 255 0 0 0 
0 0 0 255 255 255 0 0 0 0 0 0 255 255 255 0 0 0 0 255 255 255 0 0 255 255 255 255 0 0 
0 0 0 255 255 255 0 0 0 0 0 0 255 255 255 0 0 0 0 255 255 255 0 0 255 255 255 255 0 0 
0 0 0 255 255 255 0 0 0 0 0 0 255 255 255 0 0 0 0 255 255 255 0 0 255 255 255 255 255 0 
0 0 0 255 255 255 0 0 0 0 0 0 255 255 255 0 0 0 0 255 255 255 0 0 0 255 255 255 255 0 
0 0 0 255 255 255 0 0 0 0 0 0 255 255 255 0 0 0 0 255 255 255 0 0 0 255 255 255 255 0 
0 0 0 255 255 255 0 0 0 0 0 0 255 255 255 0 0 0 0 255 255 255 0 0 0 0 255 255 255 0 
0 0 0 0 0 0 0 0 0 0 0 0 0 0 0 0 0 0 0 255 255 255 0 0 0 0 255 255 255 0 
0 0 0 0 0 0 0 0 0 0 0 0 0 0 0 0 0 0 0 0 0 0 0 0 0 0 0 0 0 0 
0 0 0 0 0 0 0 0 0 0 0 0 0 0 0 0 0 0 0 0 0 0 0 0 0 0 0 0 0 0 
